HIERARCHY
ROOT mixamorig:Hips
{
  OFFSET 0.000000 0.000000 0.000000
  CHANNELS 6 Xposition Yposition Zposition Xrotation Yrotation Zrotation
  JOINT mixamorig:Spine
  {
    OFFSET 0.785918 22.667751 -11.192521
    CHANNELS 3 Xrotation Yrotation Zrotation
    JOINT mixamorig:Spine2
    {
      OFFSET 0.785918 22.667751 -11.192521
      CHANNELS 3 Xrotation Yrotation Zrotation
      JOINT mixamorig:Neck
      {
        OFFSET 0.000000 4.280912 0.000000
        CHANNELS 3 Xrotation Yrotation Zrotation
        JOINT mixamorig:Head
        {
          OFFSET 0.000000 4.254871 0.000000
          CHANNELS 3 Xrotation Yrotation Zrotation
          End Site
          {
            OFFSET 0.000000 1.276461 0.000000
          }
        }
      }
      JOINT mixamorig:LeftShoulder
      {
        OFFSET 16.621605 2.780659 -2.297863
        CHANNELS 3 Xrotation Yrotation Zrotation
        JOINT mixamorig:LeftArm
        {
          OFFSET 7.570161 -18.010043 0.790673
          CHANNELS 3 Xrotation Yrotation Zrotation
          JOINT mixamorig:LeftForeArm
          {
            OFFSET 4.258502 -21.330331 -3.694189
            CHANNELS 3 Xrotation Yrotation Zrotation
            JOINT mixamorig:LeftHand
            {
              OFFSET -1.020528 -3.245478 -1.657259
              CHANNELS 3 Xrotation Yrotation Zrotation
              End Site
              {
                OFFSET -0.306158 -0.973643 -0.497178
              }
            }
          }
        }
      }
      JOINT mixamorig:RightShoulder
      {
        OFFSET -16.621605 2.780659 2.297863
        CHANNELS 3 Xrotation Yrotation Zrotation
        JOINT mixamorig:RightArm
        {
          OFFSET -7.047239 -26.880381 -0.525442
          CHANNELS 3 Xrotation Yrotation Zrotation
          JOINT mixamorig:RightForeArm
          {
            OFFSET -7.219958 -17.761464 -6.028907
            CHANNELS 3 Xrotation Yrotation Zrotation
            JOINT mixamorig:RightHand
            {
              OFFSET 1.362391 -2.129385 -3.788414
              CHANNELS 3 Xrotation Yrotation Zrotation
              End Site
              {
                OFFSET 0.408717 -0.638815 -1.136524
              }
            }
          }
        }
      }
    }
  }
  JOINT mixamorig:LeftUpLeg
  {
    OFFSET 10.014631 -0.404759 2.482655
    CHANNELS 3 Xrotation Yrotation Zrotation
    JOINT mixamorig:LeftLeg
    {
      OFFSET 2.113296 -38.097659 -0.269871
      CHANNELS 3 Xrotation Yrotation Zrotation
      JOINT mixamorig:LeftFoot
      {
        OFFSET -0.573928 -31.710121 21.169490
        CHANNELS 3 Xrotation Yrotation Zrotation
        JOINT mixamorig:LeftToeBase
        {
          OFFSET -0.179441 -4.917473 -4.664447
          CHANNELS 3 Xrotation Yrotation Zrotation
          End Site
          {
            OFFSET -0.053832 -1.475242 -1.399334
          }
        }
      }
    }
  }
  JOINT mixamorig:RightUpLeg
  {
    OFFSET -10.014631 0.404759 -2.482655
    CHANNELS 3 Xrotation Yrotation Zrotation
    JOINT mixamorig:RightLeg
    {
      OFFSET 1.865041 -30.879068 8.259322
      CHANNELS 3 Xrotation Yrotation Zrotation
      JOINT mixamorig:RightFoot
      {
        OFFSET -5.726950 -38.744381 19.123190
        CHANNELS 3 Xrotation Yrotation Zrotation
        JOINT mixamorig:RightToeBase
        {
          OFFSET -3.558205 -3.026307 -8.262988
          CHANNELS 3 Xrotation Yrotation Zrotation
          End Site
          {
            OFFSET -1.067462 -0.907892 -2.478896
          }
        }
      }
    }
  }
}
MOTION
Frames: 14
Frame Time: 0.083333
0.096180 0.192060 0.108100 -1.748334 -1.570744 -3.183997 0.000000 0.000000 0.000000 -26.167783 6.558597 6.960944 12.421084 -3.276387 6.728018 11.892606 -4.767581 6.156057 28.880008 -5.498133 48.565147 -14.516198 -6.149758 35.730753 -81.339193 -8.916239 90.447729 0.000000 0.000000 0.000000 36.884852 -4.553438 -48.973395 -14.115393 18.952252 -15.603272 14.989066 58.606188 116.886841 0.000000 0.000000 0.000000 10.892594 2.956359 -0.468255 -3.521994 -2.782721 0.452860 -0.065967 7.341009 -2.715965 0.000000 0.000000 0.000000 13.893542 2.112978 -3.051426 -4.259894 -4.176159 -1.117539 -2.674266 6.824025 3.595241 0.000000 0.000000 0.000000
0.096736 0.191583 0.109216 -1.652313 -1.567300 -3.177261 0.000000 0.000000 0.000000 -26.166843 6.563491 6.941884 12.544068 -3.408998 6.736524 11.992477 -4.919160 6.130308 28.734707 -5.524134 47.412211 -14.183786 -6.083910 35.422629 -80.290005 -9.661269 97.942043 0.000000 0.000000 0.000000 36.605696 -4.704783 -47.864177 -13.390082 18.916764 -15.756249 15.151073 58.360473 115.512006 0.000000 0.000000 0.000000 11.119088 2.954613 -0.138103 -4.151005 -2.866882 -0.047621 -0.034103 6.955394 -2.131073 0.000000 0.000000 0.000000 14.191835 2.163091 -3.066284 -4.716444 -4.245223 -1.117092 -2.456042 6.320924 3.686133 0.000000 0.000000 0.000000
0.097630 0.190706 0.110294 -1.358601 -1.574294 -3.190985 0.000000 0.000000 0.000000 -26.163073 6.670946 6.968006 12.607301 -3.650066 6.826873 12.009061 -5.189911 6.164814 28.307732 -5.667565 45.583697 -13.760692 -6.045008 35.703827 -79.278816 -9.991622 90.515971 0.000000 0.000000 0.000000 35.565734 -5.101913 -46.303636 -12.333706 19.231195 -16.257994 15.215043 58.660781 114.456109 0.000000 0.000000 0.000000 12.742552 3.143647 0.287616 -6.366870 -2.978206 -0.519500 -0.072853 5.826437 -1.159188 0.000000 0.000000 0.000000 17.262913 2.691111 -3.079373 -8.405652 -4.939296 -1.331882 -1.998346 5.745336 3.832134 0.000000 0.000000 0.000000
0.098690 0.189715 0.110228 -1.030429 -1.594118 -3.230429 0.000000 0.000000 0.000000 -26.160090 6.795855 7.024956 12.573074 -3.746001 6.953293 11.948153 -5.308740 6.272573 27.904371 -5.838864 43.287973 -13.373592 -6.230729 36.907526 -78.838668 -10.007578 34.727226 0.000000 0.000000 0.000000 34.169464 -5.533764 -44.993149 -11.361937 19.546290 -16.769989 14.426851 59.428292 114.584842 0.000000 0.000000 0.000000 15.490633 3.499419 0.616016 -9.748251 -3.051548 -0.664981 -0.404180 4.695211 -0.646670 0.000000 0.000000 0.000000 21.370036 3.410405 -2.959366 -13.163756 -5.855346 -1.880717 -1.630947 4.965182 4.195876 0.000000 0.000000 0.000000
0.099542 0.189042 0.109282 -0.601003 -1.622144 -3.287044 0.000000 0.000000 0.000000 -26.159343 6.867221 7.058748 12.616007 -3.801204 7.256548 11.952930 -5.433695 6.566668 27.748300 -5.921451 41.473279 -13.236820 -6.416511 37.937177 -78.393564 -9.934290 -68.387367 0.000000 0.000000 0.000000 33.256365 -5.747601 -44.001833 -10.550965 19.392096 -16.633240 12.001599 59.649343 115.666330 0.000000 0.000000 0.000000 14.486747 3.448982 0.709951 -9.434162 -3.039899 -0.720600 -0.486145 4.785752 -0.632930 0.000000 0.000000 0.000000 22.044096 3.628307 -2.592239 -14.442301 -6.080369 -2.487323 -1.792753 3.470033 5.079064 0.000000 0.000000 0.000000
0.099989 0.188848 0.108527 -0.160149 -1.646985 -3.337701 0.000000 0.000000 0.000000 -26.161644 6.828901 7.031292 12.830858 -3.858854 7.793279 12.103851 -5.634767 7.091148 27.931247 -5.849783 40.134047 -13.175222 -6.785811 38.159886 -77.824672 -11.046516 -110.328080 0.000000 0.000000 0.000000 32.632387 -5.816397 -42.673067 -9.857297 19.102276 -16.935217 8.019578 59.872065 118.203473 0.000000 0.000000 0.000000 12.268672 3.246378 0.773652 -8.189243 -2.941325 -0.704408 -0.402012 4.290147 0.007739 0.000000 0.000000 0.000000 21.538198 3.671308 -2.146438 -14.375060 -6.062592 -3.012219 -2.503333 1.975488 6.096702 0.000000 0.000000 0.000000
0.100215 0.188844 0.108577 -0.107282 -1.625773 -3.294956 0.000000 0.000000 0.000000 -26.162704 6.710928 6.920920 13.138957 -3.893053 8.216185 12.359461 -5.804049 7.501718 28.280364 -5.722378 38.302829 -12.385622 -7.646533 37.039428 -76.617234 -14.760084 -62.383482 0.000000 0.000000 0.000000 32.648335 -5.846500 -40.602396 -8.900009 18.620246 -17.419340 4.977932 59.487331 118.655881 0.000000 0.000000 0.000000 8.144415 2.716336 0.652530 -5.324404 -2.636876 -0.449856 0.087506 3.502038 0.926903 0.000000 0.000000 0.000000 19.250510 3.309470 -2.128628 -12.284664 -5.668102 -2.795669 -2.597896 1.839423 6.200939 0.000000 0.000000 0.000000
0.100479 0.188594 0.109311 -0.060089 -1.594226 -3.231168 0.000000 0.000000 0.000000 -26.161489 6.630329 6.805837 13.189348 -3.952946 8.507663 12.368356 -5.934774 7.781993 28.619525 -5.633100 35.989718 -10.684496 -9.469553 34.818580 -73.343486 -19.903976 -47.339727 0.000000 0.000000 0.000000 32.565579 -5.922161 -38.611406 -7.896280 18.314063 -17.847967 2.695710 58.547416 117.679529 0.000000 0.000000 0.000000 4.774142 2.257863 0.480072 -2.874486 -2.318750 -0.142743 -0.077503 2.943383 1.478582 0.000000 0.000000 0.000000 16.952892 2.926465 -2.138260 -10.387069 -5.234243 -2.509057 -2.035106 1.722337 5.997618 0.000000 0.000000 0.000000
0.101184 0.187476 0.110494 0.076258 -1.552432 -3.146310 0.000000 0.000000 0.000000 -26.157648 6.587489 6.673177 13.222593 -3.974646 8.668232 12.380370 -5.996262 7.938938 28.440345 -5.634094 32.649299 -8.849149 -10.770203 34.157518 -70.143176 -23.127999 -19.471506 0.000000 0.000000 0.000000 32.070444 -6.085125 -36.265282 -6.541036 18.125779 -18.355410 2.051671 57.499889 114.501912 0.000000 0.000000 0.000000 5.237192 2.278439 0.326749 -4.226819 -2.351058 0.011600 -0.053373 2.548315 1.700015 0.000000 0.000000 0.000000 17.008073 2.883095 -2.169123 -11.409091 -5.201281 -2.437507 -1.102431 1.556747 5.811864 0.000000 0.000000 0.000000
0.101912 0.185896 0.111775 0.560736 -1.539665 -3.119583 0.000000 0.000000 0.000000 -26.156159 6.533478 6.551550 13.204237 -4.020744 8.744796 12.345012 -6.056311 8.006319 27.184772 -5.705804 29.177084 -8.223583 -9.973160 35.842951 -68.587851 -21.994095 22.634796 0.000000 0.000000 0.000000 30.698762 -6.224653 -34.135229 -5.279573 17.886916 -18.931804 1.053748 58.020614 113.432802 0.000000 0.000000 0.000000 8.056615 2.647618 0.397508 -8.008945 -2.514290 0.040577 -0.051394 1.665668 2.103363 0.000000 0.000000 0.000000 18.146252 3.097706 -1.902200 -13.678406 -5.400537 -2.843840 -0.034826 1.241722 5.655387 0.000000 0.000000 0.000000
0.102921 0.184420 0.113177 1.176735 -1.529094 -3.096697 0.000000 0.000000 0.000000 -26.154287 6.485237 6.418759 13.304822 -4.140460 8.981009 12.394287 -6.245083 8.213586 25.940377 -5.762769 26.352005 -7.466513 -9.257979 35.699934 -64.723199 -21.797794 48.527401 0.000000 0.000000 0.000000 29.381190 -6.330886 -31.987924 -4.375227 17.471707 -19.734008 -1.062725 58.412668 113.003283 0.000000 0.000000 0.000000 10.259160 2.936323 0.659071 -12.269760 -2.430854 0.186058 -0.250611 0.704191 2.158802 0.000000 0.000000 0.000000 19.949688 3.455350 -1.312951 -16.804578 -5.703264 -3.704522 1.359546 1.012789 5.402899 0.000000 0.000000 0.000000
0.104530 0.183171 0.114903 1.297606 -1.517437 -3.072187 0.000000 0.000000 0.000000 -26.149771 6.576214 6.415141 13.659571 -4.186124 9.371806 12.689432 -6.434966 8.586092 26.605699 -5.740656 24.531456 -6.196303 -9.485503 32.358120 -59.070188 -26.673017 32.798743 0.000000 0.000000 0.000000 29.881315 -6.600639 -28.933927 -3.546173 16.460393 -20.138054 -3.546365 55.975376 107.204264 0.000000 0.000000 0.000000 6.300817 2.407380 1.171161 -10.062847 -1.804855 0.165875 -0.297826 0.261137 2.284073 0.000000 0.000000 0.000000 18.791373 3.323419 -0.927217 -16.335677 -5.419698 -3.885827 1.793954 1.014799 5.282394 0.000000 0.000000 0.000000
0.106786 0.181814 0.116603 1.713415 -1.523630 -3.083836 0.000000 0.000000 0.000000 -26.145341 6.691005 6.421012 13.647300 -4.424963 9.680904 12.590549 -6.741181 8.839309 27.456397 -5.612756 21.930545 -3.594913 -10.758166 28.915507 -51.592955 -32.411434 13.775725 0.000000 0.000000 0.000000 30.277316 -6.886709 -26.050472 -2.718365 15.749756 -20.581393 -4.084906 52.804762 98.448658 0.000000 0.000000 0.000000 5.437520 2.286809 1.900068 -9.323890 -1.493117 -0.356848 -0.174192 -1.114632 3.535158 0.000000 0.000000 0.000000 18.408128 3.359095 -0.430697 -16.310057 -5.272698 -4.215806 1.625161 0.470099 5.366650 0.000000 0.000000 0.000000
0.108388 0.180563 0.118035 1.967419 -1.499879 -3.032793 -0.000000 0.000000 0.000000 -26.141235 6.716823 6.340894 13.824218 -4.507346 9.873995 12.722184 -6.898497 9.007208 27.715739 -5.519189 18.696800 -2.677239 -10.378773 27.654551 -44.105804 -32.422685 19.030067 0.000000 0.000000 0.000000 30.422925 -7.036170 -24.261225 -2.122428 14.371769 -18.802154 -3.033167 48.464579 84.143245 0.000000 0.000000 0.000000 5.974371 2.309071 2.161283 -8.763579 -1.519937 -0.766838 -0.589563 -1.345438 3.871727 0.000000 0.000000 0.000000 18.448069 3.367033 -0.223791 -15.783378 -5.349588 -4.602797 0.876804 0.072860 5.682031 0.000000 0.000000 0.000000
